<mxfile host="app.diagrams.net" modified="2022-07-21T03:38:51.211Z" agent="5.0 (Macintosh; Intel Mac OS X 10_15_7) AppleWebKit/537.36 (KHTML, like Gecko) Chrome/103.0.0.0 Safari/537.36" etag="ebH-B6wQI84unz3inW2X" version="20.1.3" type="github" pages="2">
  <diagram id="K7awL5xOMt2Kv2CIqqu8" name="Page-1">
    <mxGraphModel dx="2365" dy="2488" grid="0" gridSize="10" guides="1" tooltips="1" connect="1" arrows="1" fold="1" page="0" pageScale="1" pageWidth="850" pageHeight="1100" background="#F4F1DE" math="0" shadow="0">
      <root>
        <mxCell id="0" />
        <mxCell id="1" parent="0" />
        <mxCell id="bdUJwVsDaEkDlHWOxwJL-2" style="edgeStyle=orthogonalEdgeStyle;rounded=0;orthogonalLoop=1;jettySize=auto;html=1;startArrow=none;labelBackgroundColor=#F4F1DE;strokeColor=#E07A5F;fontColor=#393C56;" parent="1" source="bdUJwVsDaEkDlHWOxwJL-6" edge="1">
          <mxGeometry relative="1" as="geometry">
            <mxPoint x="370" y="-736" as="targetPoint" />
          </mxGeometry>
        </mxCell>
        <mxCell id="bdUJwVsDaEkDlHWOxwJL-1" value="client" style="ellipse;whiteSpace=wrap;html=1;rounded=0;fillColor=#F2CC8F;strokeColor=#E07A5F;fontColor=#393C56;" parent="1" vertex="1">
          <mxGeometry x="130" y="-776" width="120" height="80" as="geometry" />
        </mxCell>
        <mxCell id="bdUJwVsDaEkDlHWOxwJL-4" style="edgeStyle=orthogonalEdgeStyle;rounded=0;orthogonalLoop=1;jettySize=auto;html=1;startArrow=none;labelBackgroundColor=#F4F1DE;strokeColor=#E07A5F;fontColor=#393C56;" parent="1" source="bdUJwVsDaEkDlHWOxwJL-7" target="bdUJwVsDaEkDlHWOxwJL-5" edge="1">
          <mxGeometry relative="1" as="geometry">
            <mxPoint x="560" y="-736" as="targetPoint" />
          </mxGeometry>
        </mxCell>
        <mxCell id="bdUJwVsDaEkDlHWOxwJL-3" value="Payment &lt;br&gt;Service" style="whiteSpace=wrap;html=1;aspect=fixed;rounded=0;fillColor=#F2CC8F;strokeColor=#E07A5F;fontColor=#393C56;" parent="1" vertex="1">
          <mxGeometry x="370" y="-791" width="110" height="110" as="geometry" />
        </mxCell>
        <mxCell id="bdUJwVsDaEkDlHWOxwJL-5" value="merchant" style="ellipse;whiteSpace=wrap;html=1;rounded=0;fillColor=#F2CC8F;strokeColor=#E07A5F;fontColor=#393C56;" parent="1" vertex="1">
          <mxGeometry x="600" y="-776" width="120" height="80" as="geometry" />
        </mxCell>
        <mxCell id="bdUJwVsDaEkDlHWOxwJL-6" value="Payin" style="text;html=1;align=center;verticalAlign=middle;resizable=0;points=[];autosize=1;strokeColor=none;fillColor=none;rounded=0;fontColor=#393C56;" parent="1" vertex="1">
          <mxGeometry x="270" y="-751" width="50" height="30" as="geometry" />
        </mxCell>
        <mxCell id="bdUJwVsDaEkDlHWOxwJL-8" value="" style="edgeStyle=orthogonalEdgeStyle;rounded=0;orthogonalLoop=1;jettySize=auto;html=1;endArrow=none;labelBackgroundColor=#F4F1DE;strokeColor=#E07A5F;fontColor=#393C56;" parent="1" source="bdUJwVsDaEkDlHWOxwJL-1" target="bdUJwVsDaEkDlHWOxwJL-6" edge="1">
          <mxGeometry relative="1" as="geometry">
            <mxPoint x="370" y="-736" as="targetPoint" />
            <mxPoint x="250" y="-736" as="sourcePoint" />
          </mxGeometry>
        </mxCell>
        <mxCell id="bdUJwVsDaEkDlHWOxwJL-7" value="Payout" style="text;html=1;align=center;verticalAlign=middle;resizable=0;points=[];autosize=1;strokeColor=none;fillColor=none;rounded=0;fontColor=#393C56;" parent="1" vertex="1">
          <mxGeometry x="510" y="-751" width="60" height="30" as="geometry" />
        </mxCell>
        <mxCell id="bdUJwVsDaEkDlHWOxwJL-9" value="" style="edgeStyle=orthogonalEdgeStyle;rounded=0;orthogonalLoop=1;jettySize=auto;html=1;endArrow=none;labelBackgroundColor=#F4F1DE;strokeColor=#E07A5F;fontColor=#393C56;" parent="1" source="bdUJwVsDaEkDlHWOxwJL-3" target="bdUJwVsDaEkDlHWOxwJL-7" edge="1">
          <mxGeometry relative="1" as="geometry">
            <mxPoint x="600" y="-736" as="targetPoint" />
            <mxPoint x="480" y="-736" as="sourcePoint" />
          </mxGeometry>
        </mxCell>
        <mxCell id="bdUJwVsDaEkDlHWOxwJL-10" value="&lt;h1&gt;&lt;span style=&quot;background-color: initial;&quot;&gt;Basic payment flow&lt;/span&gt;&lt;/h1&gt;&lt;h1&gt;&lt;span style=&quot;font-size: 12px; font-weight: 400;&quot;&gt;When a customer clicks on buy, the payment is processed from customer to our service (Payin) and after the transaction is complete and we receive the funds , then we disburse the amount to the merchant (payout)&lt;/span&gt;&lt;/h1&gt;" style="text;html=1;strokeColor=none;fillColor=none;spacing=5;spacingTop=-20;whiteSpace=wrap;overflow=hidden;rounded=0;fontColor=#393C56;" parent="1" vertex="1">
          <mxGeometry x="182" y="-1003" width="490" height="160" as="geometry" />
        </mxCell>
        <mxCell id="bdUJwVsDaEkDlHWOxwJL-11" value="&lt;b&gt;&lt;font style=&quot;font-size: 18px;&quot;&gt;Payin architecture&lt;/font&gt;&lt;/b&gt;" style="text;html=1;align=center;verticalAlign=middle;resizable=0;points=[];autosize=1;strokeColor=none;fillColor=none;rounded=0;fontColor=#393C56;" parent="1" vertex="1">
          <mxGeometry x="28" y="-629" width="174" height="34" as="geometry" />
        </mxCell>
        <mxCell id="bdUJwVsDaEkDlHWOxwJL-12" value="Webpage" style="swimlane;fontSize=18;rounded=0;fillColor=#F2CC8F;strokeColor=#E07A5F;fontColor=#393C56;" parent="1" vertex="1">
          <mxGeometry x="137" y="-550" width="247" height="99" as="geometry" />
        </mxCell>
        <mxCell id="bdUJwVsDaEkDlHWOxwJL-14" style="edgeStyle=orthogonalEdgeStyle;rounded=0;orthogonalLoop=1;jettySize=auto;html=1;exitX=0.5;exitY=1;exitDx=0;exitDy=0;fontSize=18;entryX=0.5;entryY=0;entryDx=0;entryDy=0;labelBackgroundColor=#F4F1DE;strokeColor=#E07A5F;fontColor=#393C56;" parent="1" source="bdUJwVsDaEkDlHWOxwJL-13" target="bdUJwVsDaEkDlHWOxwJL-17" edge="1">
          <mxGeometry relative="1" as="geometry">
            <mxPoint x="253" y="-361" as="targetPoint" />
          </mxGeometry>
        </mxCell>
        <mxCell id="bdUJwVsDaEkDlHWOxwJL-15" value="Payment event" style="edgeLabel;html=1;align=center;verticalAlign=middle;resizable=0;points=[];fontSize=18;rounded=0;labelBackgroundColor=#F4F1DE;fontColor=#393C56;" parent="bdUJwVsDaEkDlHWOxwJL-14" vertex="1" connectable="0">
          <mxGeometry x="0.279" relative="1" as="geometry">
            <mxPoint as="offset" />
          </mxGeometry>
        </mxCell>
        <mxCell id="bdUJwVsDaEkDlHWOxwJL-13" value="BUY" style="rounded=0;whiteSpace=wrap;html=1;fontSize=18;fillColor=#F2CC8F;strokeColor=#E07A5F;fontColor=#393C56;" parent="1" vertex="1">
          <mxGeometry x="206" y="-510" width="93" height="33" as="geometry" />
        </mxCell>
        <mxCell id="bdUJwVsDaEkDlHWOxwJL-18" style="edgeStyle=orthogonalEdgeStyle;rounded=0;orthogonalLoop=1;jettySize=auto;html=1;fontSize=18;labelBackgroundColor=#F4F1DE;strokeColor=#E07A5F;fontColor=#393C56;" parent="1" source="bdUJwVsDaEkDlHWOxwJL-17" target="bdUJwVsDaEkDlHWOxwJL-19" edge="1">
          <mxGeometry relative="1" as="geometry">
            <mxPoint x="114" y="-296.5" as="targetPoint" />
          </mxGeometry>
        </mxCell>
        <mxCell id="bdUJwVsDaEkDlHWOxwJL-20" value="stores" style="edgeLabel;html=1;align=center;verticalAlign=middle;resizable=0;points=[];fontSize=11;rounded=0;labelBackgroundColor=#F4F1DE;fontColor=#393C56;" parent="bdUJwVsDaEkDlHWOxwJL-18" vertex="1" connectable="0">
          <mxGeometry x="0.0023" y="3" relative="1" as="geometry">
            <mxPoint as="offset" />
          </mxGeometry>
        </mxCell>
        <mxCell id="bdUJwVsDaEkDlHWOxwJL-21" style="edgeStyle=orthogonalEdgeStyle;rounded=0;orthogonalLoop=1;jettySize=auto;html=1;exitX=1;exitY=0.5;exitDx=0;exitDy=0;fontSize=11;labelBackgroundColor=#F4F1DE;strokeColor=#E07A5F;fontColor=#393C56;" parent="1" source="bdUJwVsDaEkDlHWOxwJL-17" edge="1">
          <mxGeometry relative="1" as="geometry">
            <mxPoint x="342.42105263157896" y="-296.7368421052631" as="targetPoint" />
          </mxGeometry>
        </mxCell>
        <mxCell id="bdUJwVsDaEkDlHWOxwJL-32" style="edgeStyle=orthogonalEdgeStyle;rounded=0;orthogonalLoop=1;jettySize=auto;html=1;fontSize=11;labelBackgroundColor=#F4F1DE;strokeColor=#E07A5F;fontColor=#393C56;" parent="1" source="bdUJwVsDaEkDlHWOxwJL-17" target="bdUJwVsDaEkDlHWOxwJL-33" edge="1">
          <mxGeometry relative="1" as="geometry">
            <mxPoint x="162.94736842105272" y="-165.6842105263156" as="targetPoint" />
          </mxGeometry>
        </mxCell>
        <mxCell id="bdUJwVsDaEkDlHWOxwJL-34" style="edgeStyle=orthogonalEdgeStyle;rounded=0;orthogonalLoop=1;jettySize=auto;html=1;fontSize=17;labelBackgroundColor=#F4F1DE;strokeColor=#E07A5F;fontColor=#393C56;" parent="1" source="bdUJwVsDaEkDlHWOxwJL-17" edge="1">
          <mxGeometry relative="1" as="geometry">
            <mxPoint x="268.2105263157896" y="-185.6842105263156" as="targetPoint" />
          </mxGeometry>
        </mxCell>
        <mxCell id="bdUJwVsDaEkDlHWOxwJL-17" value="Payment service" style="rounded=0;whiteSpace=wrap;html=1;fontSize=18;fillColor=#F2CC8F;strokeColor=#E07A5F;fontColor=#393C56;" parent="1" vertex="1">
          <mxGeometry x="157" y="-334" width="120" height="75" as="geometry" />
        </mxCell>
        <mxCell id="bdUJwVsDaEkDlHWOxwJL-19" value="&lt;font style=&quot;font-size: 11px;&quot;&gt;Database&lt;/font&gt;" style="shape=cylinder3;whiteSpace=wrap;html=1;boundedLbl=1;backgroundOutline=1;size=15;fontSize=18;rounded=0;fillColor=#F2CC8F;strokeColor=#E07A5F;fontColor=#393C56;" parent="1" vertex="1">
          <mxGeometry x="28" y="-336.5" width="60" height="80" as="geometry" />
        </mxCell>
        <mxCell id="bdUJwVsDaEkDlHWOxwJL-26" style="edgeStyle=orthogonalEdgeStyle;rounded=0;orthogonalLoop=1;jettySize=auto;html=1;exitX=1;exitY=0.5;exitDx=0;exitDy=0;entryX=0;entryY=0.5;entryDx=0;entryDy=0;fontSize=11;labelBackgroundColor=#F4F1DE;strokeColor=#E07A5F;fontColor=#393C56;" parent="1" source="bdUJwVsDaEkDlHWOxwJL-22" target="bdUJwVsDaEkDlHWOxwJL-28" edge="1">
          <mxGeometry relative="1" as="geometry">
            <mxPoint x="570" y="-364.0000000000002" as="targetPoint" />
          </mxGeometry>
        </mxCell>
        <mxCell id="bdUJwVsDaEkDlHWOxwJL-38" style="edgeStyle=orthogonalEdgeStyle;rounded=0;orthogonalLoop=1;jettySize=auto;html=1;exitX=0.5;exitY=1;exitDx=0;exitDy=0;fontSize=17;labelBackgroundColor=#F4F1DE;strokeColor=#E07A5F;fontColor=#393C56;" parent="1" source="bdUJwVsDaEkDlHWOxwJL-22" edge="1">
          <mxGeometry relative="1" as="geometry">
            <mxPoint x="400.33333333333326" y="-230.33333333333326" as="targetPoint" />
          </mxGeometry>
        </mxCell>
        <mxCell id="mXmV7Bp-ZtZaa3uex6Oa-3" value="" style="edgeStyle=orthogonalEdgeStyle;curved=1;rounded=0;orthogonalLoop=1;jettySize=auto;html=1;fontSize=12;fontColor=#393C56;endArrow=open;startSize=14;endSize=14;strokeColor=#E07A5F;fillColor=#F2CC8F;labelBackgroundColor=#F4F1DE;" edge="1" parent="1" source="bdUJwVsDaEkDlHWOxwJL-22" target="bdUJwVsDaEkDlHWOxwJL-28">
          <mxGeometry relative="1" as="geometry" />
        </mxCell>
        <mxCell id="bdUJwVsDaEkDlHWOxwJL-22" value="Payment executor" style="rounded=0;whiteSpace=wrap;html=1;fontSize=18;fillColor=#F2CC8F;strokeColor=#E07A5F;fontColor=#393C56;" parent="1" vertex="1">
          <mxGeometry x="340" y="-334" width="120" height="75" as="geometry" />
        </mxCell>
        <mxCell id="bdUJwVsDaEkDlHWOxwJL-23" value="" style="endArrow=none;html=1;rounded=0;fontSize=11;labelBackgroundColor=#F4F1DE;strokeColor=#E07A5F;fontColor=#393C56;" parent="1" edge="1">
          <mxGeometry width="50" height="50" relative="1" as="geometry">
            <mxPoint x="497" y="-37" as="sourcePoint" />
            <mxPoint x="492" y="-606" as="targetPoint" />
          </mxGeometry>
        </mxCell>
        <mxCell id="bdUJwVsDaEkDlHWOxwJL-29" style="edgeStyle=orthogonalEdgeStyle;rounded=0;orthogonalLoop=1;jettySize=auto;html=1;fontSize=11;labelBackgroundColor=#F4F1DE;strokeColor=#E07A5F;fontColor=#393C56;" parent="1" source="bdUJwVsDaEkDlHWOxwJL-28" edge="1">
          <mxGeometry relative="1" as="geometry">
            <mxPoint x="704.1538461538462" y="-297" as="targetPoint" />
          </mxGeometry>
        </mxCell>
        <mxCell id="bdUJwVsDaEkDlHWOxwJL-28" value="&lt;b&gt;PSP&lt;/b&gt;&lt;br&gt;&lt;br&gt;Paypal&lt;br&gt;Creditcard&lt;br&gt;Debit&lt;br&gt;Apple pay" style="rounded=0;whiteSpace=wrap;html=1;fontSize=11;fillColor=#F2CC8F;strokeColor=#E07A5F;fontColor=#393C56;" parent="1" vertex="1">
          <mxGeometry x="568" y="-403" width="99" height="212" as="geometry" />
        </mxCell>
        <mxCell id="bdUJwVsDaEkDlHWOxwJL-30" value="&lt;b&gt;Card Schemes&lt;br&gt;&lt;/b&gt;&lt;br&gt;VIsa&lt;br&gt;MasterCard" style="rounded=0;whiteSpace=wrap;html=1;fontSize=11;fillColor=#F2CC8F;strokeColor=#E07A5F;fontColor=#393C56;" parent="1" vertex="1">
          <mxGeometry x="704" y="-405" width="99" height="212" as="geometry" />
        </mxCell>
        <mxCell id="bdUJwVsDaEkDlHWOxwJL-42" style="edgeStyle=orthogonalEdgeStyle;rounded=0;orthogonalLoop=1;jettySize=auto;html=1;exitX=0.5;exitY=1;exitDx=0;exitDy=0;entryX=0.5;entryY=0;entryDx=0;entryDy=0;entryPerimeter=0;fontSize=17;labelBackgroundColor=#F4F1DE;strokeColor=#E07A5F;fontColor=#393C56;" parent="1" source="bdUJwVsDaEkDlHWOxwJL-33" target="bdUJwVsDaEkDlHWOxwJL-40" edge="1">
          <mxGeometry relative="1" as="geometry" />
        </mxCell>
        <mxCell id="bdUJwVsDaEkDlHWOxwJL-33" value="&lt;font style=&quot;font-size: 17px;&quot;&gt;Ledger&lt;/font&gt;" style="rounded=0;whiteSpace=wrap;html=1;fontSize=11;strokeWidth=1;fillColor=#F2CC8F;strokeColor=#E07A5F;fontColor=#393C56;" parent="1" vertex="1">
          <mxGeometry x="61.99736842105271" y="-185.0042105263156" width="120" height="60" as="geometry" />
        </mxCell>
        <mxCell id="bdUJwVsDaEkDlHWOxwJL-43" style="edgeStyle=orthogonalEdgeStyle;rounded=0;orthogonalLoop=1;jettySize=auto;html=1;exitX=0.5;exitY=1;exitDx=0;exitDy=0;entryX=0.5;entryY=0;entryDx=0;entryDy=0;entryPerimeter=0;fontSize=17;labelBackgroundColor=#F4F1DE;strokeColor=#E07A5F;fontColor=#393C56;" parent="1" source="bdUJwVsDaEkDlHWOxwJL-35" target="bdUJwVsDaEkDlHWOxwJL-41" edge="1">
          <mxGeometry relative="1" as="geometry" />
        </mxCell>
        <mxCell id="bdUJwVsDaEkDlHWOxwJL-35" value="&lt;font style=&quot;font-size: 17px;&quot;&gt;Wallet&lt;/font&gt;" style="rounded=0;whiteSpace=wrap;html=1;fontSize=11;strokeWidth=1;fillColor=#F2CC8F;strokeColor=#E07A5F;fontColor=#393C56;" parent="1" vertex="1">
          <mxGeometry x="214.99736842105273" y="-185.0042105263156" width="120" height="60" as="geometry" />
        </mxCell>
        <mxCell id="bdUJwVsDaEkDlHWOxwJL-36" value="Internal" style="text;html=1;align=center;verticalAlign=middle;resizable=0;points=[];autosize=1;strokeColor=none;fillColor=none;fontSize=17;rounded=0;fontColor=#393C56;" parent="1" vertex="1">
          <mxGeometry x="405" y="-101" width="75" height="32" as="geometry" />
        </mxCell>
        <mxCell id="bdUJwVsDaEkDlHWOxwJL-37" value="External" style="text;html=1;align=center;verticalAlign=middle;resizable=0;points=[];autosize=1;strokeColor=none;fillColor=none;fontSize=17;rounded=0;fontColor=#393C56;" parent="1" vertex="1">
          <mxGeometry x="500" y="-101" width="80" height="32" as="geometry" />
        </mxCell>
        <mxCell id="bdUJwVsDaEkDlHWOxwJL-39" value="" style="shape=cylinder3;whiteSpace=wrap;html=1;boundedLbl=1;backgroundOutline=1;size=15;fontSize=17;strokeWidth=1;rounded=0;fillColor=#F2CC8F;strokeColor=#E07A5F;fontColor=#393C56;" parent="1" vertex="1">
          <mxGeometry x="377.5" y="-231" width="45" height="59" as="geometry" />
        </mxCell>
        <mxCell id="bdUJwVsDaEkDlHWOxwJL-40" value="" style="shape=cylinder3;whiteSpace=wrap;html=1;boundedLbl=1;backgroundOutline=1;size=15;fontSize=17;strokeWidth=1;rounded=0;fillColor=#F2CC8F;strokeColor=#E07A5F;fontColor=#393C56;" parent="1" vertex="1">
          <mxGeometry x="97" y="-101" width="45" height="59" as="geometry" />
        </mxCell>
        <mxCell id="bdUJwVsDaEkDlHWOxwJL-41" value="" style="shape=cylinder3;whiteSpace=wrap;html=1;boundedLbl=1;backgroundOutline=1;size=15;fontSize=17;strokeWidth=1;rounded=0;fillColor=#F2CC8F;strokeColor=#E07A5F;fontColor=#393C56;" parent="1" vertex="1">
          <mxGeometry x="261" y="-99" width="45" height="59" as="geometry" />
        </mxCell>
        <mxCell id="B9q-eV_urQJRkB80xqRH-2" value="" style="ellipse;whiteSpace=wrap;html=1;aspect=fixed;fontSize=16;fontColor=#393C56;strokeColor=#E07A5F;fillColor=#F2CC8F;" parent="1" vertex="1">
          <mxGeometry x="750" y="28" width="80" height="80" as="geometry" />
        </mxCell>
        <mxCell id="B9q-eV_urQJRkB80xqRH-4" value="&lt;h1&gt;API Design&lt;/h1&gt;&lt;p&gt;&lt;b&gt;POST /v1/payments&lt;/b&gt;&lt;/p&gt;&lt;p&gt;This endpoint will execute the payment event.&lt;/p&gt;&lt;p&gt;&lt;br&gt;&lt;/p&gt;&lt;p&gt;&lt;b&gt;&lt;span style=&quot;white-space: pre;&quot;&gt;	&lt;/span&gt;field&lt;span style=&quot;white-space: pre;&quot;&gt;	&lt;/span&gt;&lt;span style=&quot;white-space: pre;&quot;&gt;	&lt;/span&gt;&lt;span style=&quot;white-space: pre;&quot;&gt;	&lt;/span&gt;&lt;span style=&quot;white-space: pre;&quot;&gt;	&lt;/span&gt;Desc&lt;span style=&quot;white-space: pre;&quot;&gt;	&lt;/span&gt;&lt;span style=&quot;white-space: pre;&quot;&gt;	&lt;span style=&quot;white-space: pre;&quot;&gt;	&lt;span style=&quot;white-space: pre;&quot;&gt;	&lt;/span&gt;&lt;span style=&quot;white-space: pre;&quot;&gt;	&lt;/span&gt;&lt;/span&gt;&lt;/span&gt;Type&lt;br&gt;&lt;/b&gt;&lt;/p&gt;&lt;p&gt;&lt;span style=&quot;white-space: pre;&quot;&gt;	&lt;/span&gt;buyer_info&lt;span style=&quot;white-space: pre;&quot;&gt;	&lt;/span&gt;&lt;span style=&quot;white-space: pre;&quot;&gt;	&lt;/span&gt;info of buyer&lt;span style=&quot;white-space: pre;&quot;&gt;	&lt;span style=&quot;white-space: pre;&quot;&gt;	&lt;span style=&quot;white-space: pre;&quot;&gt;	&lt;span style=&quot;white-space: pre;&quot;&gt;	&lt;/span&gt;&lt;/span&gt;&lt;/span&gt;&lt;/span&gt;json&lt;br&gt;&lt;/p&gt;&lt;p&gt;&lt;span style=&quot;white-space: pre;&quot;&gt;	&lt;/span&gt;checkout_id&lt;span style=&quot;white-space: pre;&quot;&gt;	&lt;/span&gt;&lt;span style=&quot;white-space: pre;&quot;&gt;	&lt;/span&gt;uuid&lt;span style=&quot;white-space: pre;&quot;&gt;	&lt;/span&gt;&lt;span style=&quot;white-space: pre;&quot;&gt;	&lt;/span&gt;&lt;span style=&quot;white-space: pre;&quot;&gt;	&lt;/span&gt;&lt;span style=&quot;white-space: pre;&quot;&gt;	&lt;span style=&quot;white-space: pre;&quot;&gt;	&lt;span style=&quot;white-space: pre;&quot;&gt;	&lt;/span&gt;&lt;/span&gt;&lt;/span&gt;string&lt;br&gt;&lt;/p&gt;&lt;p&gt;&lt;span style=&quot;white-space: pre;&quot;&gt;	&lt;/span&gt;credit_card_info&lt;span style=&quot;white-space: pre;&quot;&gt;	&lt;/span&gt;encrypted(psp-specific)&lt;span style=&quot;white-space: pre;&quot;&gt;	&lt;/span&gt;&lt;span style=&quot;white-space: pre;&quot;&gt;	&lt;/span&gt;json&lt;br&gt;&lt;/p&gt;&lt;p&gt;&lt;span style=&quot;white-space: pre;&quot;&gt;	&lt;/span&gt;payment_orders&lt;span style=&quot;white-space: pre;&quot;&gt;	&lt;/span&gt;list of all the orders if any.&amp;nbsp; &amp;nbsp;&lt;span style=&quot;white-space: pre;&quot;&gt;	&lt;/span&gt;list&lt;/p&gt;&lt;p&gt;&lt;/p&gt;&lt;br&gt;payment_order Object :&lt;br&gt;&lt;br&gt;&lt;span style=&quot;white-space: pre;&quot;&gt;	&lt;/span&gt;seller_account&lt;span style=&quot;white-space: pre;&quot;&gt;	&lt;/span&gt;&lt;span style=&quot;white-space: pre;&quot;&gt;	&lt;/span&gt;string&lt;br&gt;&lt;span style=&quot;white-space: pre;&quot;&gt;	&lt;/span&gt;amount&lt;span style=&quot;white-space: pre;&quot;&gt;	&lt;/span&gt;&lt;span style=&quot;white-space: pre;&quot;&gt;	&lt;/span&gt;&lt;span style=&quot;white-space: pre;&quot;&gt;	&lt;/span&gt;string&lt;br&gt;&lt;span style=&quot;white-space: pre;&quot;&gt;	&lt;/span&gt;currency&lt;span style=&quot;white-space: pre;&quot;&gt;	&lt;/span&gt;&lt;span style=&quot;white-space: pre;&quot;&gt;	&lt;/span&gt;&lt;span style=&quot;white-space: pre;&quot;&gt;	&lt;/span&gt;string&lt;br&gt;&lt;span style=&quot;white-space: pre;&quot;&gt;	&lt;/span&gt;payment_order_id&lt;span style=&quot;white-space: pre;&quot;&gt;	&lt;/span&gt;string&lt;br&gt;&lt;br&gt;&lt;p&gt;&lt;/p&gt;&lt;p&gt;&lt;b&gt;GET /v1/payments/{:id} -&amp;gt; &lt;/b&gt;Gets the payment of single order based on order_id&lt;/p&gt;&lt;p&gt;&lt;b&gt;&lt;span style=&quot;white-space: pre;&quot;&gt;	&lt;/span&gt;&lt;br&gt;&lt;/b&gt;&lt;/p&gt;&lt;p&gt;&lt;br&gt;&lt;/p&gt;" style="text;html=1;strokeColor=none;fillColor=none;spacing=5;spacingTop=-20;whiteSpace=wrap;overflow=hidden;rounded=0;fontSize=16;fontColor=#393C56;" parent="1" vertex="1">
          <mxGeometry x="64" y="50" width="637" height="560" as="geometry" />
        </mxCell>
        <mxCell id="B9q-eV_urQJRkB80xqRH-5" value="" style="ellipse;whiteSpace=wrap;html=1;aspect=fixed;fontSize=16;fontColor=#393C56;strokeColor=#E07A5F;fillColor=#F2CC8F;" parent="1" vertex="1">
          <mxGeometry x="706.75" y="92" width="61.5" height="61.5" as="geometry" />
        </mxCell>
        <mxCell id="B9q-eV_urQJRkB80xqRH-6" value="" style="ellipse;whiteSpace=wrap;html=1;aspect=fixed;fontSize=16;fontColor=#393C56;strokeColor=#E07A5F;fillColor=#F2CC8F;" parent="1" vertex="1">
          <mxGeometry x="768.25" y="120" width="45.5" height="45.5" as="geometry" />
        </mxCell>
        <mxCell id="mXmV7Bp-ZtZaa3uex6Oa-1" value="&lt;h1&gt;Data model&lt;/h1&gt;&lt;p&gt;We need two tables 1) Payment events 2) Payment orders.&amp;nbsp;&lt;/p&gt;&lt;p&gt;We have to choose the DB based on:&lt;/p&gt;&lt;p&gt;- Proven stability&lt;/p&gt;&lt;p&gt;- Supporting tools such as monitoring, and investigating should be good enough&lt;/p&gt;&lt;p&gt;- Professoinal DB admin&amp;nbsp;&lt;/p&gt;&lt;p&gt;A relational database with ACID transactions is a better choice to prefer&lt;/p&gt;&lt;p&gt;&lt;b&gt;Payment Event table&lt;/b&gt;&lt;/p&gt;&lt;p&gt;&lt;b&gt;&lt;span style=&quot;white-space: pre;&quot;&gt;	&lt;/span&gt;&lt;span style=&quot;white-space: pre;&quot;&gt;	&lt;/span&gt;Name&lt;span style=&quot;white-space: pre;&quot;&gt;	&lt;/span&gt;&lt;span style=&quot;white-space: pre;&quot;&gt;	&lt;/span&gt;&lt;span style=&quot;white-space: pre;&quot;&gt;	&lt;/span&gt;&lt;span style=&quot;white-space: pre;&quot;&gt;	&lt;/span&gt;Type&lt;br&gt;&lt;/b&gt;&lt;/p&gt;&lt;p&gt;&lt;span style=&quot;font-weight: bold; white-space: pre;&quot;&gt;	&lt;/span&gt;&lt;span style=&quot;font-weight: bold; white-space: pre;&quot;&gt;	&lt;/span&gt;checkout_id&lt;span style=&quot;white-space: pre;&quot;&gt;	&lt;/span&gt;&lt;span style=&quot;white-space: pre;&quot;&gt;	&lt;/span&gt;&lt;span style=&quot;white-space: pre;&quot;&gt;	&lt;/span&gt;string &lt;b&gt;PK&lt;/b&gt;&lt;br&gt;&lt;/p&gt;&lt;p&gt;&lt;span style=&quot;font-weight: bold; white-space: pre;&quot;&gt;	&lt;/span&gt;&lt;span style=&quot;font-weight: bold; white-space: pre;&quot;&gt;	&lt;/span&gt;buyer_info&lt;span style=&quot;white-space: pre;&quot;&gt;	&lt;/span&gt;&lt;span style=&quot;white-space: pre;&quot;&gt;	&lt;/span&gt;&lt;span style=&quot;white-space: pre;&quot;&gt;	&lt;/span&gt;string&lt;br&gt;&lt;/p&gt;&lt;p&gt;&lt;span style=&quot;white-space: pre;&quot;&gt;	&lt;/span&gt;&lt;span style=&quot;white-space: pre;&quot;&gt;	&lt;/span&gt;seller_info&lt;span style=&quot;white-space: pre;&quot;&gt;	&lt;/span&gt;&lt;span style=&quot;white-space: pre;&quot;&gt;	&lt;/span&gt;&lt;span style=&quot;white-space: pre;&quot;&gt;	&lt;/span&gt;string&lt;br&gt;&lt;/p&gt;&lt;p&gt;&lt;span style=&quot;white-space: pre;&quot;&gt;	&lt;/span&gt;&lt;span style=&quot;white-space: pre;&quot;&gt;	&lt;/span&gt;credit_card_info&lt;span style=&quot;white-space: pre;&quot;&gt;	&lt;/span&gt;&lt;span style=&quot;white-space: pre;&quot;&gt;	&lt;/span&gt;based on psp&lt;br&gt;&lt;/p&gt;&lt;p&gt;&lt;span style=&quot;white-space: pre;&quot;&gt;	&lt;/span&gt;&lt;span style=&quot;white-space: pre;&quot;&gt;	&lt;/span&gt;is_payment_done&lt;span style=&quot;white-space: pre;&quot;&gt;	&lt;/span&gt;&lt;span style=&quot;white-space: pre;&quot;&gt;	&lt;/span&gt;boolean&lt;br&gt;&lt;/p&gt;&lt;p&gt;&lt;br&gt;&lt;/p&gt;&lt;p&gt;&lt;b&gt;Payment Order table&lt;/b&gt;&lt;/p&gt;&lt;p&gt;&lt;b&gt;&lt;span style=&quot;white-space: pre;&quot;&gt;	&lt;/span&gt;&lt;span style=&quot;white-space: pre;&quot;&gt;	&lt;/span&gt;Name&lt;span style=&quot;white-space: pre;&quot;&gt;	&lt;/span&gt;&lt;span style=&quot;white-space: pre;&quot;&gt;	&lt;/span&gt;&lt;span style=&quot;white-space: pre;&quot;&gt;	&lt;/span&gt;&lt;span style=&quot;white-space: pre;&quot;&gt;	&lt;/span&gt;Type&lt;br&gt;&lt;/b&gt;&lt;/p&gt;&lt;p&gt;&lt;span style=&quot;font-weight: bold; white-space: pre;&quot;&gt;	&lt;/span&gt;&lt;span style=&quot;font-weight: bold; white-space: pre;&quot;&gt;	&lt;/span&gt;payment_order_id&lt;span style=&quot;white-space: pre;&quot;&gt;	&lt;/span&gt;&lt;span style=&quot;white-space: pre;&quot;&gt;	&lt;/span&gt;String &lt;b&gt;PK&lt;/b&gt;&lt;br&gt;&lt;/p&gt;&lt;p&gt;&lt;span style=&quot;font-weight: bold; white-space: pre;&quot;&gt;	&lt;/span&gt;&lt;span style=&quot;font-weight: bold; white-space: pre;&quot;&gt;	&lt;/span&gt;buyer_account&lt;span style=&quot;white-space: pre;&quot;&gt;	&lt;/span&gt;&lt;span style=&quot;white-space: pre;&quot;&gt;	&lt;/span&gt;string&lt;br&gt;&lt;/p&gt;&lt;p&gt;&lt;span style=&quot;white-space: pre;&quot;&gt;	&lt;/span&gt;&lt;span style=&quot;white-space: pre;&quot;&gt;	&lt;/span&gt;amount&lt;span style=&quot;white-space: pre;&quot;&gt;	&lt;/span&gt;&lt;span style=&quot;white-space: pre;&quot;&gt;	&lt;/span&gt;&lt;span style=&quot;white-space: pre;&quot;&gt;	&lt;/span&gt;&lt;span style=&quot;white-space: pre;&quot;&gt;	&lt;/span&gt;string&lt;br&gt;&lt;/p&gt;&lt;p&gt;&lt;span style=&quot;white-space: pre;&quot;&gt;	&lt;/span&gt;&lt;span style=&quot;white-space: pre;&quot;&gt;	&lt;/span&gt;currency&lt;span style=&quot;white-space: pre;&quot;&gt;	&lt;/span&gt;&lt;span style=&quot;white-space: pre;&quot;&gt;	&lt;/span&gt;&lt;span style=&quot;white-space: pre;&quot;&gt;	&lt;/span&gt;&lt;span style=&quot;white-space: pre;&quot;&gt;	&lt;/span&gt;string&lt;br&gt;&lt;/p&gt;&lt;p&gt;&lt;span style=&quot;white-space: pre;&quot;&gt;	&lt;/span&gt;&lt;span style=&quot;white-space: pre;&quot;&gt;	&lt;/span&gt;checkout_id&lt;span style=&quot;white-space: pre;&quot;&gt;	&lt;/span&gt;&lt;span style=&quot;white-space: pre;&quot;&gt;	&lt;/span&gt;&lt;span style=&quot;white-space: pre;&quot;&gt;	&lt;/span&gt;string &lt;b&gt;FK&lt;/b&gt;&lt;br&gt;&lt;/p&gt;&lt;p&gt;&lt;span style=&quot;font-weight: bold; white-space: pre;&quot;&gt;	&lt;/span&gt;&lt;span style=&quot;font-weight: bold; white-space: pre;&quot;&gt;	&lt;/span&gt;payment_order_status&lt;span style=&quot;white-space: pre;&quot;&gt;	&lt;/span&gt;enum&lt;br&gt;&lt;/p&gt;&lt;p&gt;&lt;span style=&quot;white-space: pre;&quot;&gt;	&lt;/span&gt;&lt;span style=&quot;white-space: pre;&quot;&gt;	&lt;/span&gt;ledger_updated&lt;span style=&quot;white-space: pre;&quot;&gt;	&lt;/span&gt;&lt;span style=&quot;white-space: pre;&quot;&gt;	&lt;/span&gt;boolean&lt;br&gt;&lt;/p&gt;&lt;p&gt;&lt;span style=&quot;white-space: pre;&quot;&gt;	&lt;/span&gt;&lt;span style=&quot;white-space: pre;&quot;&gt;	&lt;/span&gt;wallet_updated&lt;span style=&quot;white-space: pre;&quot;&gt;	&lt;/span&gt;&lt;span style=&quot;white-space: pre;&quot;&gt;	&lt;/span&gt;boolean&lt;br&gt;&lt;/p&gt;" style="text;html=1;strokeColor=none;fillColor=none;spacing=5;spacingTop=-20;whiteSpace=wrap;overflow=hidden;rounded=0;fontSize=16;fontColor=#393C56;" vertex="1" parent="1">
          <mxGeometry x="64" y="629" width="756" height="1026" as="geometry" />
        </mxCell>
      </root>
    </mxGraphModel>
  </diagram>
  <diagram id="mlxrmKEuce0JP0NZYPjX" name="Page-2">
    <mxGraphModel dx="946" dy="515" grid="0" gridSize="10" guides="1" tooltips="1" connect="1" arrows="1" fold="1" page="1" pageScale="1" pageWidth="850" pageHeight="1100" math="0" shadow="0">
      <root>
        <mxCell id="0" />
        <mxCell id="1" parent="0" />
      </root>
    </mxGraphModel>
  </diagram>
</mxfile>
